<svg xmlns="http://www.w3.org/2000/svg" viewBox="2 135.2 298 29.8">
  <path fill="none" d="M239.1 143.7c-3.4 0-6.1 2.3-6.1 6 0 3.6 2.8 6.1 6.1 6.1 3.4 0 6.5-2.4 6.5-6 0-3.8-3.2-6.1-6.5-6.1zm-47.8.1c-3.3 0-6.4 2.7-6.4 6.8s3.1 6.9 6.4 6.9c3.4 0 6.2-2.5 6.2-6.8 0-4.4-2.9-6.9-6.2-6.9z"/>
  <path fill="#FFF" d="M225.1 135.2h-1.9v1.9c0 .7.4 1 1.1 1h1.9v-1.9c0-.7-.5-1-1.1-1zm-54.2 6.1c-3 0-4.9 1.6-6.1 3.4-1-2-2.8-3.5-5.7-3.5-3 0-4.5 1.7-5.7 3.4V143c0-.7-.4-1.2-1.2-1.2h-1.4v17.8h1.5c.8 0 1.1-.2 1.1-1.1v-9c0-3.3 2.1-5.6 4.9-5.6 2.8 0 4.5 2 4.5 5.3v9.2c0 .8.6 1.1 1.2 1.1h1.4v-10.2c0-3.5 2.2-5.5 4.9-5.5 2.9 0 4.6 1.9 4.6 5.3v9c0 .7.2 1.3 1.2 1.3h1.4v-10.9c0-4.5-2.5-7.2-6.6-7.2zm40.3.2c-2.6 0-4.5.6-6.4 1.5 0 0 .3.8.5 1.4.2.6.9.5 1.3.3 1.3-.5 2.7-.9 4.4-.9 3.3 0 5.3 1.6 5.3 4.8v4.3c0 2.8-2.6 4.8-5.9 4.8-2.4 0-4.4-1.3-4.4-3.6s1.8-3.5 5.2-3.5h1.9c.8 0 1.2-.3 1.2-1.1v-.9h-3.4c-4.5 0-7.6 1.8-7.6 5.6 0 3.7 3.3 5.5 6.6 5.5 3.1 0 5.2-1.4 6.4-3v1.6c0 .7.3 1 1.1 1h1.5v-10.7c-.2-4.6-2.9-7.1-7.7-7.1zm-19.3-.2c-3.3 0-5.4 1.8-6.8 3.9V143c0-.9-.5-1.3-1.4-1.3h-1.3v22c0 .8.4 1.2 1.1 1.2h1.5V156c1.4 2 3.5 3.8 6.8 3.8 4.2 0 8.4-3.4 8.5-9.2 0-5.8-4.2-9.3-8.4-9.3zm-.6 16.2c-3.3 0-6.4-2.8-6.4-6.9 0-4.1 3.1-6.8 6.4-6.8s6.2 2.6 6.2 6.9c0 4.3-2.8 6.8-6.2 6.8zm-52.9-16c-2.6 0-4.5.6-6.4 1.5 0 0 .3.8.5 1.4.2.6.9.5 1.3.3 1.3-.5 2.7-.9 4.4-.9 3.3 0 5.3 1.6 5.3 4.8v4.3c0 2.8-2.6 4.8-5.9 4.8-2.4 0-4.4-1.3-4.4-3.6s1.8-3.5 5.2-3.5h1.9c.8 0 1.2-.3 1.2-1.1v-.9h-3.4c-4.5 0-7.6 1.8-7.6 5.6 0 3.7 3.3 5.5 6.6 5.5 3.1 0 5.2-1.4 6.4-3v1.6c0 .7.3 1 1.1 1h1.5v-10.7c-.2-4.6-2.9-7.1-7.7-7.1zM125 154.8c-1.9 1.7-3.9 2.6-6.7 2.6-5.3 0-9.3-4.3-9.3-9.9 0-5.5 4-9.8 9.3-9.8 2.7 0 4.8 1 6.6 2.5.5.4 1.2.5 1.7-.1.5-.5 1-1.1 1-1.1-2.4-2.3-5-3.8-9.3-3.8-7 0-12.1 5.6-12.1 12.4 0 6.9 5.1 12.3 12 12.3 4.3 0 7.1-1.7 9.5-4.3l-.8-.8c-.6-.6-1.4-.5-1.9 0zm99.9-13.1h-1.5v16.6c0 .7.5 1.1 1.1 1.1h1.5v-16.6c0-.8-.4-1.1-1.1-1.1zm37-.4c-3.1 0-4.9 1.6-6.1 3.5v-2c0-.7-.6-1.1-1.2-1.1h-1.4v17.6h2.7v-10c0-3.3 2.3-5.5 5.3-5.5 3.1 0 4.9 2 4.9 5.3v9.2c0 .8.3 1.1 1 1.1h1.6v-11c0-4.2-2.5-7.1-6.8-7.1zm36.5 6.9c-.5-.3-17.7-12.3-17.7-12.3v2.5c0 .9.5 1.2 1.1 1.6.9.6 14.3 9.9 14.3 9.9s-13.6 9.4-14.4 9.9c-.8.6-1 .9-1 1.7v2.4s16.9-11.6 17.7-12.1c.7-.5.9-1.1.9-1.8v-.3c0-.7-.4-1.2-.9-1.5zm-53-5.4v2c-1.4-2-3.6-3.6-6.9-3.6-4.2 0-8.3 3.2-8.3 8.4s4.1 8.3 8.3 8.3c3.2 0 5.4-1.6 6.9-3.7v2.1c0 4.1-2.5 6.3-6.4 6.3-2 0-3.8-.5-5.5-1.4-.8-.5-1.3-.7-1.8.1-.4.8-.6 1.1-.6 1.1 2.3 1.7 5.1 2.5 8 2.5 5.5 0 9-2.9 8.9-8.7v-14.6h-1.4c-.5.1-1.2.6-1.2 1.2zm-6.3 13c-3.3 0-6.1-2.5-6.1-6.1 0-3.7 2.7-6 6.1-6 3.3 0 6.5 2.4 6.5 6.1 0 3.5-3.1 6-6.5 6zm-197.7-.3c-1.3 1.1-2.8 1.8-4.6 1.8-3.7 0-6.5-3-6.5-6.9 0-3.9 2.7-6.9 6.3-6.9 1.9 0 3.2.8 4.4 1.8.7.6 1.2.6 1.7.1.5-.4 1-1 1-1-1.7-1.7-3.7-3.1-7.1-3.1-5.2 0-9.1 4.3-9.1 9.3s3.9 9.2 9.1 9.2c3.3 0 5.4-1.5 7.3-3.5 0 0-.3-.2-.9-.8-.6-.5-1.3-.3-1.6 0zM62 141.7h-1.5v16.6c0 .7.5 1.1 1.1 1.1h1.5v-16.6c0-.8-.4-1.1-1.1-1.1zm-47.6-6.5h-.7c-.5 0-1 .3-1.3.8-.1.5-10.4 23.3-10.4 23.3h1.7c.8 0 1.2-.3 1.6-1.1.3-.7 2.3-5.2 2.3-5.2h8c.9 0 1.4-.5 1.4-1.3v-1.2H8.6l5.5-12.3s8.6 19.4 8.9 20.2 1.2.9 1.8.9h1.5S16.2 136.7 15.8 136c-.3-.7-.7-.8-1.4-.8z"/>
  <path fill="#FFF" d="M289.5 150.3c.6-.4 1.1-.8 1.1-.8s-7.7-5.4-8.5-5.9c-.7-.4-1.4-.1-1.4.7v1.7s5.3 3.7 6.3 4.4c.9.6 1.6.6 2.5-.1zM99 149.5h-7.1c-.7 0-1.1.4-1.1 1.1v1h9c2.1 0 2.7-1.3 2.6-2.9-.4-4.3-3.5-7.4-8.1-7.4-4.9 0-8.5 4.1-8.5 9.2 0 5.5 4 9.2 8.8 9.2 3.4 0 5.5-1.3 7.3-3.3 0 0-.4-.4-.9-.8-.6-.5-1.1-.3-1.5 0-1.3 1.1-2.8 1.8-4.9 1.8-3.1 0-5.8-2.2-6.2-6v-1.9c.3-3.5 2.7-6 5.7-6 3.2 0 5.3 2.2 5.5 5.1.1.6-.1.9-.6.9zm-17.9-6.8c-.3.7-5.6 13.7-5.6 13.7s-5.3-12.9-5.6-13.6c-.3-.7-.8-1-1.5-1h-1.8s7 16.2 7.3 16.9c.3.7.7.8 1.4.8h.4c.6 0 1-.3 1.3-.9.3-.6 7.3-16.8 7.3-16.8h-1.8c-.6 0-1.1.2-1.4.9zm-18.9-7.5h-1.9v1.9c0 .7.4 1 1.1 1h1.9v-1.7c0-.7-.5-1.2-1.1-1.2zM55.1 157c-.7.2-1.1.3-1.8.3-1.8 0-3-.7-3-2.9h.1V144H56v-1c0-.9-1.4-1.2-1.4-1.2h-4.2v-5.3c0-.8-.6-1.2-1.3-1.2h-1.3v19.3c0 3.6 2.2 5 5 5 1.3 0 2.7-.2 3.6-.7v-1.1c0-.8-.7-1-1.3-.8z"/>
</svg>